<svg version="1.1"
      xmlns="http://www.w3.org/2000/svg"
      xmlns:xlink="http://www.w3.org/1999/xlink"  id="snapshot-96910" width="250" height="250" viewBox="0 0 250 250"><desc>This image was made on Patterninja.com</desc><defs>
<!-- image 64281 -->
<g id="transformed-64281" data-image="64281" transform="translate(-58.47480127925948, 176.0246127039791) rotate(23, 64.47480127925948, 62.97538729602089)"><g><svg version="1.1" width="128.94960255851896px" height="125.95077459204178px" viewBox="0 0 128.94960255851896 125.95077459204178"><g id="original-64281"><svg xmlns="http://www.w3.org/2000/svg" fill="none" viewBox="0 0 256 252" xmlns:xlink="http://www.w3.org/1999/xlink" version="1.1" preserveAspectRatio="xMidYMid meet">
  <path fill-rule="evenodd" d="M5.922 66.594A11.908 11.908 0 0 0 0 76.888v93.839c0 4.241 2.256 8.162 5.922 10.294L128 252v-.372l122.078-70.979A11.91 11.91 0 0 0 256 170.354V80.385c0-4.591-4.977-7.455-8.946-5.147l-113.132 65.778A11.909 11.909 0 0 0 128 151.31v17.337L9.92 99.992 128 31.337V5.963c0-4.592-4.977-7.455-8.946-5.147L5.922 66.594zm160.024 85.935a2.978 2.978 0 0 0-1.481 2.574v7.608a1.489 1.489 0 0 0 2.237 1.286l60.283-35.05a2.977 2.977 0 0 0 1.48-2.573v-7.608a1.488 1.488 0 0 0-2.236-1.287l-60.283 35.05z" clip-rule="evenodd" fill="rgba(51, 91, 241, 1)" stroke="none"/>
  <path d="M85.333 126.503c0-4.242 2.256-8.163 5.923-10.294l113.132-65.778c3.969-2.308 8.945.556 8.945 5.147v25.374l-128 74.423v-28.872z" fill="rgba(51, 91, 241, 1)" stroke="none"/>
  <path d="M42.667 101.695c0-4.241 2.255-8.162 5.922-10.294L161.72 25.623c3.969-2.308 8.946.556 8.946 5.147v25.375l-128 74.422v-28.872z" fill="rgba(51, 91, 241, 1)" stroke="none"/>
</svg>
</g></svg></g></g>
<!-- /image 64281 -->

<!-- image 30200 -->
<g id="transformed-30200" data-image="30200" transform="translate(67.71717444579036, 172.59503124758152) rotate(334, 53.282825554209644, 64.40496875241847)"><g><svg version="1.1" width="106.56565110841929px" height="128.80993750483694px" viewBox="0 0 106.56565110841929 128.80993750483694"><g id="original-30200"><svg xmlns="http://www.w3.org/2000/svg" viewBox="0 0 256 310" preserveAspectRatio="xMidYMid meet" xmlns:xlink="http://www.w3.org/1999/xlink" version="1.1">
  <path d="M254.313 235.519L148 9.749A17.063 17.063 0 0 0 133.473.037a16.87 16.87 0 0 0-15.533 8.052L2.633 194.848a17.465 17.465 0 0 0 .193 18.747L59.2 300.896a18.13 18.13 0 0 0 20.363 7.489l163.599-48.392a17.929 17.929 0 0 0 11.26-9.722 17.542 17.542 0 0 0-.101-14.76l-.008.008zm-23.802 9.683l-138.823 41.05c-4.235 1.26-8.3-2.411-7.419-6.685l49.598-237.484c.927-4.443 7.063-5.147 9.003-1.035l91.814 194.973a6.63 6.63 0 0 1-4.18 9.18h.007z" fill="rgba(0, 0, 0, 1)" stroke="none"/>
</svg>
</g></svg></g></g>
<!-- /image 30200 -->
</defs><rect x="0" y="0" width="250" height="250" fill="rgba(174, 132, 132, 1)"></rect><use xlink:href="#transformed-64281" transform="translate(-250, -250)"></use><use xlink:href="#transformed-64281" transform="translate(0, -250)"></use><use xlink:href="#transformed-64281" transform="translate(250, -250)"></use><use xlink:href="#transformed-64281" transform="translate(-250, 0)"></use><use xlink:href="#transformed-64281" transform="translate(0, 0)"></use><use xlink:href="#transformed-64281" transform="translate(250, 0)"></use><use xlink:href="#transformed-64281" transform="translate(-250, 250)"></use><use xlink:href="#transformed-64281" transform="translate(0, 250)"></use><use xlink:href="#transformed-64281" transform="translate(250, 250)"></use><use xlink:href="#transformed-30200" transform="translate(-250, -250)"></use><use xlink:href="#transformed-30200" transform="translate(0, -250)"></use><use xlink:href="#transformed-30200" transform="translate(250, -250)"></use><use xlink:href="#transformed-30200" transform="translate(-250, 0)"></use><use xlink:href="#transformed-30200" transform="translate(0, 0)"></use><use xlink:href="#transformed-30200" transform="translate(250, 0)"></use><use xlink:href="#transformed-30200" transform="translate(-250, 250)"></use><use xlink:href="#transformed-30200" transform="translate(0, 250)"></use><use xlink:href="#transformed-30200" transform="translate(250, 250)"></use></svg>